<svg id="visual" viewBox="0 0 900 600" width="900" height="600" xmlns="http://www.w3.org/2000/svg" xmlns:xlink="http://www.w3.org/1999/xlink" version="1.1"><rect x="0" y="0" width="900" height="600" fill="#000000"></rect><path d="M640 600L482 600L482 574L692 574L692 548L677 548L677 522L558 522L558 496L720 496L720 470L553 470L553 443L694 443L694 417L577 417L577 391L719 391L719 365L699 365L699 339L618 339L618 313L635 313L635 287L525 287L525 261L512 261L512 235L569 235L569 209L457 209L457 183L622 183L622 157L630 157L630 130L480 130L480 104L491 104L491 78L491 78L491 52L689 52L689 26L688 26L688 0L900 0L900 26L900 26L900 52L900 52L900 78L900 78L900 104L900 104L900 130L900 130L900 157L900 157L900 183L900 183L900 209L900 209L900 235L900 235L900 261L900 261L900 287L900 287L900 313L900 313L900 339L900 339L900 365L900 365L900 391L900 391L900 417L900 417L900 443L900 443L900 470L900 470L900 496L900 496L900 522L900 522L900 548L900 548L900 574L900 574L900 600L900 600Z" fill="#560090"></path><path d="M780 600L703 600L703 574L635 574L635 548L785 548L785 522L738 522L738 496L745 496L745 470L689 470L689 443L665 443L665 417L663 417L663 391L685 391L685 365L596 365L596 339L684 339L684 313L759 313L759 287L665 287L665 261L689 261L689 235L672 235L672 209L769 209L769 183L592 183L592 157L688 157L688 130L741 130L741 104L805 104L805 78L679 78L679 52L800 52L800 26L581 26L581 0L900 0L900 26L900 26L900 52L900 52L900 78L900 78L900 104L900 104L900 130L900 130L900 157L900 157L900 183L900 183L900 209L900 209L900 235L900 235L900 261L900 261L900 287L900 287L900 313L900 313L900 339L900 339L900 365L900 365L900 391L900 391L900 417L900 417L900 443L900 443L900 470L900 470L900 496L900 496L900 522L900 522L900 548L900 548L900 574L900 574L900 600L900 600Z" fill="#7700c6"></path><path d="M859 600L719 600L719 574L776 574L776 548L679 548L679 522L847 522L847 496L713 496L713 470L856 470L856 443L884 443L884 417L900 417L900 391L826 391L826 365L684 365L684 339L820 339L820 313L847 313L847 287L863 287L863 261L785 261L785 235L737 235L737 209L693 209L693 183L810 183L810 157L785 157L785 130L874 130L874 104L827 104L827 78L856 78L856 52L797 52L797 26L863 26L863 0L900 0L900 26L900 26L900 52L900 52L900 78L900 78L900 104L900 104L900 130L900 130L900 157L900 157L900 183L900 183L900 209L900 209L900 235L900 235L900 261L900 261L900 287L900 287L900 313L900 313L900 339L900 339L900 365L900 365L900 391L900 391L900 417L900 417L900 443L900 443L900 470L900 470L900 496L900 496L900 522L900 522L900 548L900 548L900 574L900 574L900 600L900 600Z" fill="#9900ff"></path></svg>