<svg id="visual" viewBox="0 0 900 600" width="900" height="600" xmlns="http://www.w3.org/2000/svg" xmlns:xlink="http://www.w3.org/1999/xlink" version="1.1"><rect x="0" y="0" width="900" height="600" fill="#000000"></rect><path d="M0 317L129 317L129 344L257 344L257 283L386 283L386 329L514 329L514 337L643 337L643 321L771 321L771 366L900 366L900 347L900 601L900 601L771 601L771 601L643 601L643 601L514 601L514 601L386 601L386 601L257 601L257 601L129 601L129 601L0 601Z" fill="#9900ff"></path><path d="M0 428L129 428L129 437L257 437L257 345L386 345L386 345L514 345L514 428L643 428L643 438L771 438L771 346L900 346L900 394L900 601L900 601L771 601L771 601L643 601L643 601L514 601L514 601L386 601L386 601L257 601L257 601L129 601L129 601L0 601Z" fill="#7700c6"></path><path d="M0 525L129 525L129 538L257 538L257 545L386 545L386 507L514 507L514 533L643 533L643 511L771 511L771 464L900 464L900 529L900 601L900 601L771 601L771 601L643 601L643 601L514 601L514 601L386 601L386 601L257 601L257 601L129 601L129 601L0 601Z" fill="#560090"></path></svg>