<svg id="visual" viewBox="0 0 900 600" width="900" height="600" xmlns="http://www.w3.org/2000/svg" xmlns:xlink="http://www.w3.org/1999/xlink" version="1.1"><rect x="0" y="0" width="900" height="600" fill="#000000"></rect><path d="M0 301L129 301L129 251L257 251L257 303L386 303L386 340L514 340L514 303L643 303L643 348L771 348L771 304L900 304L900 366L900 601L900 601L771 601L771 601L643 601L643 601L514 601L514 601L386 601L386 601L257 601L257 601L129 601L129 601L0 601Z" fill="#9900ff"></path><path d="M0 455L129 455L129 454L257 454L257 443L386 443L386 416L514 416L514 358L643 358L643 396L771 396L771 392L900 392L900 442L900 601L900 601L771 601L771 601L643 601L643 601L514 601L514 601L386 601L386 601L257 601L257 601L129 601L129 601L0 601Z" fill="#7700c6"></path><path d="M0 465L129 465L129 478L257 478L257 541L386 541L386 469L514 469L514 491L643 491L643 455L771 455L771 528L900 528L900 491L900 601L900 601L771 601L771 601L643 601L643 601L514 601L514 601L386 601L386 601L257 601L257 601L129 601L129 601L0 601Z" fill="#560090"></path></svg>