<svg id="visual" viewBox="0 0 900 600" width="900" height="600" xmlns="http://www.w3.org/2000/svg" xmlns:xlink="http://www.w3.org/1999/xlink" version="1.1"><rect x="0" y="0" width="900" height="600" fill="#000000"></rect><path d="M744 600L650 600L650 574L775 574L775 548L766 548L766 522L695 522L695 496L792 496L792 470L692 470L692 443L777 443L777 417L707 417L707 391L792 391L792 365L780 365L780 339L731 339L731 313L742 313L742 287L676 287L676 261L668 261L668 235L702 235L702 209L635 209L635 183L733 183L733 157L739 157L739 130L649 130L649 104L655 104L655 78L655 78L655 52L774 52L774 26L773 26L773 0L900 0L900 26L900 26L900 52L900 52L900 78L900 78L900 104L900 104L900 130L900 130L900 157L900 157L900 183L900 183L900 209L900 209L900 235L900 235L900 261L900 261L900 287L900 287L900 313L900 313L900 339L900 339L900 365L900 365L900 391L900 391L900 417L900 417L900 443L900 443L900 470L900 470L900 496L900 496L900 522L900 522L900 548L900 548L900 574L900 574L900 600L900 600Z" fill="#560090"></path><path d="M828 600L782 600L782 574L741 574L741 548L831 548L831 522L803 522L803 496L808 496L808 470L774 470L774 443L759 443L759 417L758 417L758 391L771 391L771 365L718 365L718 339L771 339L771 313L816 313L816 287L759 287L759 261L774 261L774 235L764 235L764 209L822 209L822 183L716 183L716 157L773 157L773 130L805 130L805 104L843 104L843 78L768 78L768 52L841 52L841 26L709 26L709 0L900 0L900 26L900 26L900 52L900 52L900 78L900 78L900 104L900 104L900 130L900 130L900 157L900 157L900 183L900 183L900 209L900 209L900 235L900 235L900 261L900 261L900 287L900 287L900 313L900 313L900 339L900 339L900 365L900 365L900 391L900 391L900 417L900 417L900 443L900 443L900 470L900 470L900 496L900 496L900 522L900 522L900 548L900 548L900 574L900 574L900 600L900 600Z" fill="#7700c6"></path><path d="M876 600L792 600L792 574L826 574L826 548L768 548L768 522L868 522L868 496L788 496L788 470L874 470L874 443L891 443L891 417L900 417L900 391L856 391L856 365L771 365L771 339L853 339L853 313L869 313L869 287L878 287L878 261L831 261L831 235L803 235L803 209L776 209L776 183L847 183L847 157L831 157L831 130L885 130L885 104L857 104L857 78L874 78L874 52L839 52L839 26L878 26L878 0L900 0L900 26L900 26L900 52L900 52L900 78L900 78L900 104L900 104L900 130L900 130L900 157L900 157L900 183L900 183L900 209L900 209L900 235L900 235L900 261L900 261L900 287L900 287L900 313L900 313L900 339L900 339L900 365L900 365L900 391L900 391L900 417L900 417L900 443L900 443L900 470L900 470L900 496L900 496L900 522L900 522L900 548L900 548L900 574L900 574L900 600L900 600Z" fill="#9900ff"></path></svg>