<svg id="visual" viewBox="0 0 900 600" width="900" height="600" xmlns="http://www.w3.org/2000/svg" xmlns:xlink="http://www.w3.org/1999/xlink" version="1.1"><rect x="0" y="0" width="900" height="600" fill="#000000"></rect><path d="M697 600L577 600L577 574L453 574L453 548L574 548L574 522L693 522L693 496L464 496L464 470L510 470L510 443L608 443L608 417L677 417L677 391L510 391L510 365L483 365L483 339L581 339L581 313L678 313L678 287L716 287L716 261L510 261L510 235L655 235L655 209L518 209L518 183L687 183L687 157L515 157L515 130L487 130L487 104L624 104L624 78L518 78L518 52L516 52L516 26L523 26L523 0L900 0L900 26L900 26L900 52L900 52L900 78L900 78L900 104L900 104L900 130L900 130L900 157L900 157L900 183L900 183L900 209L900 209L900 235L900 235L900 261L900 261L900 287L900 287L900 313L900 313L900 339L900 339L900 365L900 365L900 391L900 391L900 417L900 417L900 443L900 443L900 470L900 470L900 496L900 496L900 522L900 522L900 548L900 548L900 574L900 574L900 600L900 600Z" fill="#560090"></path><path d="M602 600L683 600L683 574L609 574L609 548L618 548L618 522L631 522L631 496L587 496L587 470L796 470L796 443L585 443L585 417L633 417L633 391L566 391L566 365L743 365L743 339L752 339L752 313L787 313L787 287L716 287L716 261L605 261L605 235L705 235L705 209L765 209L765 183L763 183L763 157L727 157L727 130L582 130L582 104L606 104L606 78L566 78L566 52L573 52L573 26L647 26L647 0L900 0L900 26L900 26L900 52L900 52L900 78L900 78L900 104L900 104L900 130L900 130L900 157L900 157L900 183L900 183L900 209L900 209L900 235L900 235L900 261L900 261L900 287L900 287L900 313L900 313L900 339L900 339L900 365L900 365L900 391L900 391L900 417L900 417L900 443L900 443L900 470L900 470L900 496L900 496L900 522L900 522L900 548L900 548L900 574L900 574L900 600L900 600Z" fill="#7700c6"></path><path d="M781 600L805 600L805 574L858 574L858 548L852 548L852 522L898 522L898 496L719 496L719 470L819 470L819 443L889 443L889 417L849 417L849 391L777 391L777 365L762 365L762 339L887 339L887 313L742 313L742 287L828 287L828 261L829 261L829 235L792 235L792 209L719 209L719 183L841 183L841 157L754 157L754 130L858 130L858 104L890 104L890 78L743 78L743 52L699 52L699 26L805 26L805 0L900 0L900 26L900 26L900 52L900 52L900 78L900 78L900 104L900 104L900 130L900 130L900 157L900 157L900 183L900 183L900 209L900 209L900 235L900 235L900 261L900 261L900 287L900 287L900 313L900 313L900 339L900 339L900 365L900 365L900 391L900 391L900 417L900 417L900 443L900 443L900 470L900 470L900 496L900 496L900 522L900 522L900 548L900 548L900 574L900 574L900 600L900 600Z" fill="#9900ff"></path></svg>