<svg id="visual" viewBox="0 0 900 600" width="900" height="600" xmlns="http://www.w3.org/2000/svg" xmlns:xlink="http://www.w3.org/1999/xlink" version="1.1"><rect x="0" y="0" width="900" height="600" fill="#000000"></rect><path d="M0 378L129 378L129 323L257 323L257 338L386 338L386 279L514 279L514 310L643 310L643 334L771 334L771 376L900 376L900 369L900 601L900 601L771 601L771 601L643 601L643 601L514 601L514 601L386 601L386 601L257 601L257 601L129 601L129 601L0 601Z" fill="#9900ff"></path><path d="M0 450L129 450L129 393L257 393L257 451L386 451L386 440L514 440L514 361L643 361L643 388L771 388L771 432L900 432L900 353L900 601L900 601L771 601L771 601L643 601L643 601L514 601L514 601L386 601L386 601L257 601L257 601L129 601L129 601L0 601Z" fill="#7700c6"></path><path d="M0 508L129 508L129 505L257 505L257 456L386 456L386 469L514 469L514 520L643 520L643 503L771 503L771 543L900 543L900 457L900 601L900 601L771 601L771 601L643 601L643 601L514 601L514 601L386 601L386 601L257 601L257 601L129 601L129 601L0 601Z" fill="#560090"></path></svg>