<svg id="visual" viewBox="0 0 900 600" width="900" height="600" xmlns="http://www.w3.org/2000/svg" xmlns:xlink="http://www.w3.org/1999/xlink" version="1.1"><rect x="0" y="0" width="900" height="600" fill="#000000"></rect><path d="M515 600L653 600L653 574L513 574L513 548L697 548L697 522L483 522L483 496L648 496L648 470L672 470L672 443L689 443L689 417L693 417L693 391L487 391L487 365L667 365L667 339L667 339L667 313L602 313L602 287L671 287L671 261L581 261L581 235L668 235L668 209L578 209L578 183L490 183L490 157L482 157L482 130L604 130L604 104L688 104L688 78L543 78L543 52L476 52L476 26L710 26L710 0L900 0L900 26L900 26L900 52L900 52L900 78L900 78L900 104L900 104L900 130L900 130L900 157L900 157L900 183L900 183L900 209L900 209L900 235L900 235L900 261L900 261L900 287L900 287L900 313L900 313L900 339L900 339L900 365L900 365L900 391L900 391L900 417L900 417L900 443L900 443L900 470L900 470L900 496L900 496L900 522L900 522L900 548L900 548L900 574L900 574L900 600L900 600Z" fill="#560090"></path><path d="M802 600L783 600L783 574L608 574L608 548L695 548L695 522L693 522L693 496L794 496L794 470L761 470L761 443L570 443L570 417L591 417L591 391L796 391L796 365L789 365L789 339L803 339L803 313L638 313L638 287L640 287L640 261L727 261L727 235L801 235L801 209L764 209L764 183L795 183L795 157L744 157L744 130L782 130L782 104L726 104L726 78L663 78L663 52L584 52L584 26L659 26L659 0L900 0L900 26L900 26L900 52L900 52L900 78L900 78L900 104L900 104L900 130L900 130L900 157L900 157L900 183L900 183L900 209L900 209L900 235L900 235L900 261L900 261L900 287L900 287L900 313L900 313L900 339L900 339L900 365L900 365L900 391L900 391L900 417L900 417L900 443L900 443L900 470L900 470L900 496L900 496L900 522L900 522L900 548L900 548L900 574L900 574L900 600L900 600Z" fill="#7700c6"></path><path d="M796 600L883 600L883 574L825 574L825 548L876 548L876 522L751 522L751 496L715 496L715 470L749 470L749 443L712 443L712 417L747 417L747 391L849 391L849 365L829 365L829 339L685 339L685 313L679 313L679 287L698 287L698 261L761 261L761 235L677 235L677 209L705 209L705 183L715 183L715 157L826 157L826 130L717 130L717 104L767 104L767 78L713 78L713 52L734 52L734 26L817 26L817 0L900 0L900 26L900 26L900 52L900 52L900 78L900 78L900 104L900 104L900 130L900 130L900 157L900 157L900 183L900 183L900 209L900 209L900 235L900 235L900 261L900 261L900 287L900 287L900 313L900 313L900 339L900 339L900 365L900 365L900 391L900 391L900 417L900 417L900 443L900 443L900 470L900 470L900 496L900 496L900 522L900 522L900 548L900 548L900 574L900 574L900 600L900 600Z" fill="#9900ff"></path></svg>