<svg id="visual" viewBox="0 0 900 600" width="900" height="600" xmlns="http://www.w3.org/2000/svg" xmlns:xlink="http://www.w3.org/1999/xlink" version="1.1"><rect x="0" y="0" width="900" height="600" fill="#000000"></rect><path d="M565 600L530 600L530 574L703 574L703 548L591 548L591 522L566 522L566 496L651 496L651 470L661 470L661 443L554 443L554 417L481 417L481 391L517 391L517 365L523 365L523 339L717 339L717 313L558 313L558 287L575 287L575 261L504 261L504 235L640 235L640 209L624 209L624 183L531 183L531 157L520 157L520 130L512 130L512 104L474 104L474 78L609 78L609 52L703 52L703 26L624 26L624 0L900 0L900 26L900 26L900 52L900 52L900 78L900 78L900 104L900 104L900 130L900 130L900 157L900 157L900 183L900 183L900 209L900 209L900 235L900 235L900 261L900 261L900 287L900 287L900 313L900 313L900 339L900 339L900 365L900 365L900 391L900 391L900 417L900 417L900 443L900 443L900 470L900 470L900 496L900 496L900 522L900 522L900 548L900 548L900 574L900 574L900 600L900 600Z" fill="#560090"></path><path d="M697 600L799 600L799 574L714 574L714 548L658 548L658 522L806 522L806 496L740 496L740 470L718 470L718 443L810 443L810 417L635 417L635 391L778 391L778 365L673 365L673 339L565 339L565 313L591 313L591 287L811 287L811 261L774 261L774 235L629 235L629 209L583 209L583 183L770 183L770 157L659 157L659 130L604 130L604 104L721 104L721 78L668 78L668 52L625 52L625 26L784 26L784 0L900 0L900 26L900 26L900 52L900 52L900 78L900 78L900 104L900 104L900 130L900 130L900 157L900 157L900 183L900 183L900 209L900 209L900 235L900 235L900 261L900 261L900 287L900 287L900 313L900 313L900 339L900 339L900 365L900 365L900 391L900 391L900 417L900 417L900 443L900 443L900 470L900 470L900 496L900 496L900 522L900 522L900 548L900 548L900 574L900 574L900 600L900 600Z" fill="#7700c6"></path><path d="M745 600L711 600L711 574L888 574L888 548L885 548L885 522L890 522L890 496L685 496L685 470L785 470L785 443L877 443L877 417L764 417L764 391L820 391L820 365L735 365L735 339L886 339L886 313L888 313L888 287L686 287L686 261L899 261L899 235L730 235L730 209L697 209L697 183L704 183L704 157L695 157L695 130L819 130L819 104L722 104L722 78L858 78L858 52L775 52L775 26L782 26L782 0L900 0L900 26L900 26L900 52L900 52L900 78L900 78L900 104L900 104L900 130L900 130L900 157L900 157L900 183L900 183L900 209L900 209L900 235L900 235L900 261L900 261L900 287L900 287L900 313L900 313L900 339L900 339L900 365L900 365L900 391L900 391L900 417L900 417L900 443L900 443L900 470L900 470L900 496L900 496L900 522L900 522L900 548L900 548L900 574L900 574L900 600L900 600Z" fill="#9900ff"></path></svg>