<svg id="visual" viewBox="0 0 900 600" width="900" height="600" xmlns="http://www.w3.org/2000/svg" xmlns:xlink="http://www.w3.org/1999/xlink" version="1.1"><rect x="0" y="0" width="900" height="600" fill="#000000"></rect><path d="M618 600L713 600L713 574L686 574L686 548L505 548L505 522L554 522L554 496L698 496L698 470L607 470L607 443L543 443L543 417L704 417L704 391L721 391L721 365L562 365L562 339L612 339L612 313L543 313L543 287L606 287L606 261L713 261L713 235L494 235L494 209L624 209L624 183L568 183L568 157L657 157L657 130L483 130L483 104L642 104L642 78L573 78L573 52L539 52L539 26L610 26L610 0L900 0L900 26L900 26L900 52L900 52L900 78L900 78L900 104L900 104L900 130L900 130L900 157L900 157L900 183L900 183L900 209L900 209L900 235L900 235L900 261L900 261L900 287L900 287L900 313L900 313L900 339L900 339L900 365L900 365L900 391L900 391L900 417L900 417L900 443L900 443L900 470L900 470L900 496L900 496L900 522L900 522L900 548L900 548L900 574L900 574L900 600L900 600Z" fill="#560090"></path><path d="M629 600L664 600L664 574L720 574L720 548L591 548L591 522L735 522L735 496L768 496L768 470L623 470L623 443L669 443L669 417L778 417L778 391L624 391L624 365L568 365L568 339L632 339L632 313L683 313L683 287L684 287L684 261L691 261L691 235L676 235L676 209L694 209L694 183L667 183L667 157L798 157L798 130L648 130L648 104L693 104L693 78L722 78L722 52L594 52L594 26L800 26L800 0L900 0L900 26L900 26L900 52L900 52L900 78L900 78L900 104L900 104L900 130L900 130L900 157L900 157L900 183L900 183L900 209L900 209L900 235L900 235L900 261L900 261L900 287L900 287L900 313L900 313L900 339L900 339L900 365L900 365L900 391L900 391L900 417L900 417L900 443L900 443L900 470L900 470L900 496L900 496L900 522L900 522L900 548L900 548L900 574L900 574L900 600L900 600Z" fill="#7700c6"></path><path d="M728 600L857 600L857 574L894 574L894 548L853 548L853 522L758 522L758 496L879 496L879 470L870 470L870 443L724 443L724 417L882 417L882 391L689 391L689 365L781 365L781 339L757 339L757 313L827 313L827 287L834 287L834 261L775 261L775 235L746 235L746 209L899 209L899 183L810 183L810 157L880 157L880 130L731 130L731 104L817 104L817 78L836 78L836 52L773 52L773 26L833 26L833 0L900 0L900 26L900 26L900 52L900 52L900 78L900 78L900 104L900 104L900 130L900 130L900 157L900 157L900 183L900 183L900 209L900 209L900 235L900 235L900 261L900 261L900 287L900 287L900 313L900 313L900 339L900 339L900 365L900 365L900 391L900 391L900 417L900 417L900 443L900 443L900 470L900 470L900 496L900 496L900 522L900 522L900 548L900 548L900 574L900 574L900 600L900 600Z" fill="#9900ff"></path></svg>